<?xml version="1.0" standalone="no"?>
<!DOCTYPE svg PUBLIC "-//W3C//DTD SVG 20010904//EN"
 "http://www.w3.org/TR/2001/REC-SVG-20010904/DTD/svg10.dtd">
<svg version="1.0" xmlns="http://www.w3.org/2000/svg"
 width="20.000000pt" height="20.000000pt" viewBox="0 0 1280.000000 1280.000000"
 preserveAspectRatio="xMidYMid meet">
<metadata>
Created by potrace 1.16, written by Peter Selinger 2001-2019
</metadata>
<g transform="translate(0.000000,1280.000000) scale(0.100000,-0.100000)"
fill="#000000" stroke="none">
<path d="M5185 10111 c-162 -46 -299 -177 -357 -341 -18 -52 -22 -86 -22 -170
0 -84 4 -118 22 -170 60 -169 202 -302 368 -344 56 -14 341 -16 2805 -16 2375
0 2751 2 2799 15 172 46 312 175 372 345 32 92 32 248 0 340 -60 169 -202 302
-368 344 -56 14 -340 16 -2810 15 -2572 0 -2753 -2 -2809 -18z"/>
<path d="M1985 6911 c-162 -46 -299 -177 -357 -341 -18 -52 -22 -86 -22 -170
0 -84 4 -118 22 -170 60 -169 202 -302 368 -344 56 -14 485 -16 4405 -16 3779
0 4351 2 4399 15 172 46 312 175 372 345 32 92 32 248 0 340 -60 169 -202 302
-368 344 -56 14 -484 16 -4410 15 -4087 0 -4353 -1 -4409 -18z"/>
<path d="M7288 3700 c-42 -15 -96 -42 -121 -58 -98 -68 -185 -192 -218 -312
-20 -73 -16 -205 9 -285 50 -164 167 -285 333 -346 l80 -29 1687 0 c1448 0
1695 2 1742 15 172 46 312 175 372 345 32 92 32 248 0 340 -44 124 -135 233
-245 294 -127 70 -1 66 -1873 66 l-1689 -1 -77 -29z"/>
</g>
</svg>
